<svg width="88" height="86" viewBox="0 0 88 86" fill="none" xmlns="http://www.w3.org/2000/svg">
<path d="M43.8674 85.98C68.0946 85.98 87.7347 66.7327 87.7347 42.99C87.7347 19.2473 68.0946 0 43.8674 0C19.6401 0 0 19.2473 0 42.99C0 66.7327 19.6401 85.98 43.8674 85.98Z" fill="#DEE5FD"/>
<path d="M43.8671 73.9431C61.3109 73.9431 75.452 60.0849 75.452 42.9899C75.452 25.8949 61.3109 12.0367 43.8671 12.0367C26.4233 12.0367 12.2822 25.8949 12.2822 42.9899C12.2822 60.0849 26.4233 73.9431 43.8671 73.9431Z" fill="#AAC0F7"/>
<path d="M61.7151 43.6741C61.7282 46.4177 59.4818 48.6607 56.6797 48.7058C53.909 48.6912 51.6744 46.4812 51.6876 43.7694V43.7098C51.6744 40.9662 53.9209 38.7218 56.723 38.6781C59.4949 38.6927 61.7282 40.904 61.7151 43.6158V43.6714" fill="#262A36"/>
<path d="M34.4973 43.6741C34.5105 46.4177 32.264 48.6607 29.4619 48.7058C26.6913 48.6912 24.4566 46.4812 24.4698 43.7694V43.7098C24.4566 40.9662 26.7031 38.7218 29.5052 38.6781C32.2772 38.6927 34.5105 40.904 34.4973 43.6158V43.6714" fill="#262A36"/>
<path d="M38.0931 51.5707H49.5262C49.7197 51.5707 49.9054 51.6624 50.0422 51.8258C50.1791 51.9891 50.256 52.2106 50.256 52.4416V53.9059C50.256 54.9161 50.0892 55.9164 49.7653 56.8497C49.4413 57.783 48.9665 58.631 48.3679 59.3453C47.7693 60.0596 47.0587 60.6262 46.2765 61.0128C45.4944 61.3994 44.6562 61.5983 43.8096 61.5983C42.1 61.5983 40.4603 60.7879 39.2514 59.3453C38.0425 57.9027 37.3633 55.9461 37.3633 53.9059V52.4416C37.3633 52.2106 37.4402 51.9891 37.577 51.8258C37.7139 51.6624 37.8995 51.5707 38.0931 51.5707V51.5707Z" fill="#262A36"/>
<path d="M44.5252 60.1658C46.1075 60.1658 47.3902 59.5245 47.3902 58.7333C47.3902 57.9421 46.1075 57.3008 44.5252 57.3008C42.9429 57.3008 41.6602 57.9421 41.6602 58.7333C41.6602 59.5245 42.9429 60.1658 44.5252 60.1658Z" fill="#ED6855"/>
</svg>
